<?xml version="1.0" encoding="iso-8859-1"?>
<!-- Generator: Adobe Illustrator 19.0.0, SVG Export Plug-In . SVG Version: 6.00 Build 0)  -->
<svg version="1.1" id="Capa_1" xmlns="http://www.w3.org/2000/svg" xmlns:xlink="http://www.w3.org/1999/xlink" x="0px" y="0px"
	 viewBox="0 0 496.005 496.005" style="enable-background:new 0 0 496.005 496.005;" xml:space="preserve">
<g>
	<g>
		<g>
			<path d="M224.002,96.002h-48c-13.255,0-24,10.745-24,24v48c0,13.255,10.745,24,24,24h48c4.418,0,8-3.582,8-8v-80
				C232.002,99.584,228.421,96.002,224.002,96.002z M216.002,176.002h-40c-4.418,0-8-3.582-8-8v-48c0-4.418,3.582-8,8-8h40V176.002z
				"/>
			<path d="M320.002,96.002h-48c-4.418,0-8,3.582-8,8v80c0,4.418,3.582,8,8,8h48c13.255,0,24-10.745,24-24v-48
				C344.002,106.747,333.257,96.002,320.002,96.002z M328.002,168.002c0,4.418-3.582,8-8,8h-40v-64h40c4.418,0,8,3.582,8,8V168.002z
				"/>
			<path d="M192.002,208.002c-13.255,0-24,10.745-24,24s10.745,24,24,24s24-10.745,24-24S205.257,208.002,192.002,208.002z
				 M192.002,240.002c-4.418,0-8-3.582-8-8s3.582-8,8-8s8,3.582,8,8S196.421,240.002,192.002,240.002z"/>
			<path d="M304.002,208.002c-13.255,0-24,10.745-24,24s10.745,24,24,24s24-10.745,24-24S317.257,208.002,304.002,208.002z
				 M304.002,240.002c-4.418,0-8-3.582-8-8s3.582-8,8-8s8,3.582,8,8S308.421,240.002,304.002,240.002z"/>
			<path d="M464.002,192.002v-32h16v-16h-16v-16.968c18.232-4.464,32-23.848,32-47.032c0.112-12.181-3.938-24.035-11.48-33.6
				c2.302-4.45,3.495-9.39,3.48-14.4c0-17.673-14.327-32-32-32c-17.673,0-32,14.327-32,32c-0.015,5.01,1.178,9.95,3.48,14.4
				c-7.542,9.565-11.592,21.419-11.48,33.6c0,23.2,13.768,42.568,32,47.032v54.488c-14.542-22.065-44.217-28.164-66.282-13.622
				c-2.015,1.328-3.926,2.806-5.718,4.422v-76.32c0-17.673-14.327-32-32-32h-16v-8c0-2.122-0.844-4.156-2.344-5.656l-16-16
				c-1.5-1.5-3.534-2.344-5.656-2.344h-8v-24c0-4.418-3.582-8-8-8h-80c-4.418,0-8,3.582-8,8v24h-8c-2.122,0-4.156,0.844-5.656,2.344
				l-16,16c-1.5,1.5-2.344,3.534-2.344,5.656v8h-16c-17.673,0-32,14.327-32,32v76.32c-19.623-17.7-49.878-16.141-67.578,3.482
				c-1.616,1.792-3.095,3.703-4.422,5.718v-54.488c18.232-4.464,32-23.832,32-47.032c0.112-12.181-3.938-24.035-11.48-33.6
				c2.302-4.45,3.495-9.39,3.48-14.4c0-17.673-14.327-32-32-32s-32,14.327-32,32c-0.015,5.01,1.178,9.95,3.48,14.4
				C3.94,55.968-0.11,67.822,0.002,80.002c0,23.2,13.768,42.568,32,47.032v16.968h-16v16h16v32c-17.673,0-32,14.327-32,32v24
				c0,4.418,3.582,8,8,8h112c0.033,5.634,1.569,11.157,4.448,16H0.002v16h144v52.688L2.346,482.346
				c-3.124,3.125-3.123,8.19,0.002,11.314c1.5,1.499,3.534,2.342,5.654,2.342h480c4.418-0.001,7.999-3.583,7.998-8.002
				c0-2.121-0.843-4.154-2.342-5.654L352.002,340.69v-52.688h144v-16H371.554c2.879-4.843,4.415-10.366,4.448-16h112
				c4.418,0,8-3.582,8-8v-24C496.002,206.329,481.675,192.002,464.002,192.002z M16.002,80.002
				c-0.277-10.038,3.691-19.727,10.928-26.688c3.26-2.863,3.644-7.804,0.864-11.136c-2.424-2.839-3.767-6.443-3.792-10.176
				c0-8.837,7.163-16,16-16s16,7.163,16,16c-0.025,3.733-1.368,7.337-3.792,10.176c-2.78,3.332-2.396,8.273,0.864,11.136
				c7.237,6.961,11.205,16.65,10.928,26.688c0,17.648-10.768,32-24,32S16.002,97.65,16.002,80.002z M120.002,240.002h-104v-16
				c0-8.837,7.163-16,16-16s16,7.163,16,16h16c-0.033-7.478-2.708-14.703-7.552-20.4c2.362-17.47,18.439-29.718,35.909-27.356
				c15.879,2.147,27.705,15.733,27.643,31.756V240.002z M216.002,16.002h64v16h-64V16.002z M184.002,59.314l11.312-11.312H300.69
				l11.312,11.312v4.688h-128V59.314z M27.314,480.002l128-128h25.376l-128,128H27.314z M155.314,400.002l16-16H324.69l16,16
				H155.314z M356.69,416.002l16,16H123.314l16-16H356.69z M187.314,368.002l16-16h89.376l16,16H187.314z M203.314,320.002h25.376
				l16,16h-25.376L203.314,320.002z M251.314,320.002h25.376l16,16h-25.376L251.314,320.002z M299.314,320.002h36.688v16h-20.688
				L299.314,320.002z M160.002,304.002v-16h176v16H160.002z M180.69,320.002l16,16h-36.688v-16H180.69z M75.314,480.002l32-32
				H388.69l32,32H75.314z M468.69,480.002h-25.376l-128-128h25.376L468.69,480.002z M360.002,256.002c0,8.837-7.163,16-16,16h-192
				c-8.837,0-16-7.163-16-16v-160c0-8.837,7.163-16,16-16h192c8.837,0,16,7.163,16,16V256.002z M432.002,80.002
				c-0.277-10.038,3.691-19.727,10.928-26.688c3.26-2.863,3.644-7.804,0.864-11.136c-2.424-2.839-3.767-6.443-3.792-10.176
				c0-8.837,7.163-16,16-16s16,7.163,16,16c-0.025,3.733-1.368,7.337-3.792,10.176c-2.78,3.332-2.396,8.273,0.864,11.136
				c7.237,6.961,11.205,16.65,10.928,26.688c0,17.648-10.768,32-24,32S432.002,97.65,432.002,80.002z M480.002,240.002h-104v-32
				c-0.068-17.629,14.167-31.975,31.796-32.043c16.023-0.062,29.609,11.765,31.756,27.643c-4.844,5.697-7.519,12.922-7.552,20.4h16
				c0-8.837,7.163-16,16-16s16,7.163,16,16V240.002z"/>
		</g>
	</g>
</g>
<g>
</g>
<g>
</g>
<g>
</g>
<g>
</g>
<g>
</g>
<g>
</g>
<g>
</g>
<g>
</g>
<g>
</g>
<g>
</g>
<g>
</g>
<g>
</g>
<g>
</g>
<g>
</g>
<g>
</g>
</svg>
